# xmcd
#
# Track frame offsets:
#	150
#	12374
#	23562
#	33440
#	45767
#	59378
#	72488
#	90474
#	103080
#	111007
#	122446
#	132739
#	142979
#	152494
#	163987
#	177988
#	195277
#	209111
#	223056
#	233239
#	245235
#	256561
#	266302
#	276929
#	286749
#	297573
#	306920
#	319611
#
# Disc length: 4408 seconds
#
# Revision: 2
# Processed by: cddbd v1.5.2PL0 Copyright (c) Steve Scherf et al.
# Submitted via: audiograbber 1.83.01
#
DISCID=9a11361c
DTITLE=Karl Denver Trio - The Very Best Of
DYEAR=1900
DGENRE=Oldies
TTITLE0=Ja, der Willy muss beim Whisky immer weinen [D 19 396]
TTITLE1=Wimoweh
TTITLE2=Still
TTITLE3=Marchesta
TTITLE4=Toodle-Um-Day
TTITLE5=8x10
TTITLE6=If I Had My Way
TTITLE7=Blue Week-End
TTITLE8=I Can't Help It
TTITLE9=Mexicali Rose
TTITLE10=Love Me Whith All Of Your Heart
TTITLE11=Can You Forgive Me
TTITLE12=Indian Love Call
TTITLE13=My World Of Blue
TTITLE14=O'Brian The Engineer
TTITLE15=My Mother's Eyes
TTITLE16=Never Goodbye
TTITLE17=Silver and Gold
TTITLE18=China Doll
TTITLE19=Just A Little Love A Little Kiss
TTITLE20=Pastures Of Plenty
TTITLE21=Snow Shoe Thompson
TTITLE22=T for Texas
TTITLE23=Swanee River
TTITLE24=Three Lovely Lassies from Banion
TTITLE25=Vella Langa
TTITLE26=Zimba
TTITLE27=Adios Bella Rosa
EXTD=Radio Wuhletal Archiv Berlin
EXTT0=[D 19 396]
EXTT1=
EXTT2=
EXTT3=
EXTT4=
EXTT5=
EXTT6=
EXTT7=
EXTT8=
EXTT9=
EXTT10=
EXTT11=
EXTT12=
EXTT13=
EXTT14=
EXTT15=
EXTT16=
EXTT17=
EXTT18=
EXTT19=
EXTT20=
EXTT21=
EXTT22=
EXTT23=
EXTT24=
EXTT25=
EXTT26=
EXTT27=[D 19 396]
PLAYORDER=
